<mxfile host="Electron" modified="2024-02-21T02:07:26.242Z" agent="Mozilla/5.0 (Macintosh; Intel Mac OS X 10_15_7) AppleWebKit/537.36 (KHTML, like Gecko) draw.io/21.6.8 Chrome/114.0.5735.289 Electron/25.5.0 Safari/537.36" etag="VyWFYe2Dc6l3_zEwQq1E" version="21.6.8" type="device">
  <diagram name="Page-1" id="ksI0KflbmtQFvvSXH81g">
    <mxGraphModel dx="1194" dy="824" grid="1" gridSize="10" guides="1" tooltips="1" connect="1" arrows="1" fold="1" page="1" pageScale="1" pageWidth="850" pageHeight="1100" math="1" shadow="0">
      <root>
        <mxCell id="0" />
        <mxCell id="1" parent="0" />
        <mxCell id="Lr6OlVlhMSfUfxXyhcn7-1" value="" style="rounded=1;whiteSpace=wrap;html=1;fillColor=#d0cee2;strokeColor=#56517e;" parent="1" vertex="1">
          <mxGeometry x="160" y="230" width="310" height="160" as="geometry" />
        </mxCell>
        <mxCell id="Lr6OlVlhMSfUfxXyhcn7-2" value="" style="rounded=0;whiteSpace=wrap;html=1;fillColor=#fff2cc;strokeColor=#d6b656;" parent="1" vertex="1">
          <mxGeometry x="180" y="240" width="210" height="140" as="geometry" />
        </mxCell>
        <mxCell id="Lr6OlVlhMSfUfxXyhcn7-3" value="" style="edgeStyle=orthogonalEdgeStyle;rounded=0;orthogonalLoop=1;jettySize=auto;html=1;" parent="1" source="Lr6OlVlhMSfUfxXyhcn7-4" target="Lr6OlVlhMSfUfxXyhcn7-8" edge="1">
          <mxGeometry relative="1" as="geometry" />
        </mxCell>
        <mxCell id="Lr6OlVlhMSfUfxXyhcn7-4" value="Linear" style="rounded=0;whiteSpace=wrap;html=1;fillColor=#dae8fc;strokeColor=#6c8ebf;" parent="1" vertex="1">
          <mxGeometry x="200" y="280" width="40" height="80" as="geometry" />
        </mxCell>
        <mxCell id="Lr6OlVlhMSfUfxXyhcn7-5" value="" style="edgeStyle=orthogonalEdgeStyle;rounded=0;orthogonalLoop=1;jettySize=auto;html=1;" parent="1" source="Lr6OlVlhMSfUfxXyhcn7-6" target="Lr6OlVlhMSfUfxXyhcn7-9" edge="1">
          <mxGeometry relative="1" as="geometry" />
        </mxCell>
        <mxCell id="Lr6OlVlhMSfUfxXyhcn7-6" value="relu" style="ellipse;whiteSpace=wrap;html=1;fillColor=#f8cecc;strokeColor=#b85450;" parent="1" vertex="1">
          <mxGeometry x="330" y="280" width="40" height="80" as="geometry" />
        </mxCell>
        <mxCell id="Lr6OlVlhMSfUfxXyhcn7-7" value="" style="edgeStyle=orthogonalEdgeStyle;rounded=0;orthogonalLoop=1;jettySize=auto;html=1;" parent="1" source="Lr6OlVlhMSfUfxXyhcn7-8" target="Lr6OlVlhMSfUfxXyhcn7-6" edge="1">
          <mxGeometry relative="1" as="geometry" />
        </mxCell>
        <mxCell id="Lr6OlVlhMSfUfxXyhcn7-8" value="BN" style="rounded=1;whiteSpace=wrap;html=1;fillColor=#d5e8d4;strokeColor=#82b366;" parent="1" vertex="1">
          <mxGeometry x="265" y="280" width="40" height="80" as="geometry" />
        </mxCell>
        <mxCell id="Lr6OlVlhMSfUfxXyhcn7-9" value="Linear" style="rounded=0;whiteSpace=wrap;html=1;fillColor=#dae8fc;strokeColor=#6c8ebf;" parent="1" vertex="1">
          <mxGeometry x="410" y="280" width="40" height="80" as="geometry" />
        </mxCell>
        <mxCell id="Lr6OlVlhMSfUfxXyhcn7-10" value="`L_2 \times`" style="text;html=1;strokeColor=none;fillColor=none;align=center;verticalAlign=middle;whiteSpace=wrap;rounded=0;" parent="1" vertex="1">
          <mxGeometry x="190" y="240" width="30" height="30" as="geometry" />
        </mxCell>
        <mxCell id="Lr6OlVlhMSfUfxXyhcn7-12" value="" style="endArrow=classic;html=1;rounded=0;exitX=1;exitY=0.5;exitDx=0;exitDy=0;entryX=1;entryY=0.5;entryDx=0;entryDy=0;" parent="1" source="Lr6OlVlhMSfUfxXyhcn7-9" edge="1">
          <mxGeometry width="50" height="50" relative="1" as="geometry">
            <mxPoint x="-20" y="320" as="sourcePoint" />
            <mxPoint x="470" y="320" as="targetPoint" />
          </mxGeometry>
        </mxCell>
        <mxCell id="Lr6OlVlhMSfUfxXyhcn7-13" value="" style="endArrow=classic;html=1;rounded=0;entryX=0;entryY=0.5;entryDx=0;entryDy=0;" parent="1" target="Lr6OlVlhMSfUfxXyhcn7-4" edge="1">
          <mxGeometry width="50" height="50" relative="1" as="geometry">
            <mxPoint x="160" y="320" as="sourcePoint" />
            <mxPoint x="30" y="270" as="targetPoint" />
          </mxGeometry>
        </mxCell>
        <mxCell id="Lr6OlVlhMSfUfxXyhcn7-14" value="" style="shape=flexArrow;endArrow=classic;html=1;rounded=0;width=8;endSize=4.38;endWidth=16;" parent="1" edge="1">
          <mxGeometry width="50" height="50" relative="1" as="geometry">
            <mxPoint x="470" y="319.5" as="sourcePoint" />
            <mxPoint x="510" y="320" as="targetPoint" />
          </mxGeometry>
        </mxCell>
        <mxCell id="Lr6OlVlhMSfUfxXyhcn7-15" value="&lt;font style=&quot;font-size: 14px;&quot;&gt;输入&lt;/font&gt;" style="text;html=1;align=center;verticalAlign=middle;resizable=0;points=[];autosize=1;strokeColor=none;fillColor=none;" parent="1" vertex="1">
          <mxGeometry x="110" y="280" width="50" height="30" as="geometry" />
        </mxCell>
        <mxCell id="Lr6OlVlhMSfUfxXyhcn7-16" value="&lt;font style=&quot;font-size: 14px;&quot;&gt;输出&lt;/font&gt;" style="text;html=1;align=center;verticalAlign=middle;resizable=0;points=[];autosize=1;strokeColor=none;fillColor=none;" parent="1" vertex="1">
          <mxGeometry x="470" y="280" width="50" height="30" as="geometry" />
        </mxCell>
        <mxCell id="5wUBgQflY54nV2RvUji3-1" value="" style="shape=flexArrow;endArrow=classic;html=1;rounded=0;width=8;endSize=4.38;endWidth=16;" edge="1" parent="1">
          <mxGeometry width="50" height="50" relative="1" as="geometry">
            <mxPoint x="120" y="319.5" as="sourcePoint" />
            <mxPoint x="160" y="320" as="targetPoint" />
          </mxGeometry>
        </mxCell>
      </root>
    </mxGraphModel>
  </diagram>
</mxfile>
